<?xml version="1.0" standalone="no"?>
<!DOCTYPE svg PUBLIC "-//W3C//DTD SVG 20010904//EN"
 "http://www.w3.org/TR/2001/REC-SVG-20010904/DTD/svg10.dtd">
<svg version="1.0" xmlns="http://www.w3.org/2000/svg"
 width="169.000000pt" height="144.000000pt" viewBox="0 0 169.000000 144.000000"
 preserveAspectRatio="xMidYMid meet">
<metadata>
Created by potrace 1.16, written by Peter Selinger 2001-2019
</metadata>
<g transform="translate(0.000000,144.000000) scale(0.100000,-0.100000)"
fill="#000000" stroke="none">
<path d="M0 720 l0 -720 845 0 845 0 0 720 0 720 -845 0 -845 0 0 -720z m1040
170 c0 -42 -3 -51 -12 -42 -7 7 -41 12 -81 12 l-68 0 3 -175 3 -175 -62 0
c-35 0 -63 4 -63 10 0 6 5 10 10 10 6 0 10 62 10 165 l0 165 -74 0 c-50 0 -76
-4 -79 -12 -3 -7 -6 12 -6 42 l-1 55 210 0 210 0 0 -55z"/>
</g>
</svg>
